# xmcd
#
# Track frame offsets:
#	150
#	18522
#	38872
#	61360
#	76604
#	96402
#	114603
#	128284
#
# Disc length: 2109 seconds
#
# Revision: 1
# Processed by: cddbd v1.5.2PL0 Copyright (c) Steve Scherf et al.
# Submitted via: audiograbber 1.83.01
#
DISCID=5a083b08
DTITLE=Talent Musicans - Scenit
DYEAR=2002
DGENRE=
TTITLE0=Brown Eyed Girl
TTITLE1=Babylon
TTITLE2=Dreadlock Holiday
TTITLE3=Luka
TTITLE4=Mrs Robinson
TTITLE5=Ride On
TTITLE6=Up The Junktion
TTITLE7=Comfortably Numb
EXTD=
EXTT0=
EXTT1=
EXTT2=
EXTT3=
EXTT4=
EXTT5=
EXTT6=
EXTT7=
PLAYORDER=
